<mxfile host="app.diagrams.net" agent="Mozilla/5.0 (Windows NT 10.0; Win64; x64) AppleWebKit/537.36 (KHTML, like Gecko) Chrome/134.0.0.0 Safari/537.36" version="26.2.8">
  <diagram name="Page-1" id="2NcUJ0XhTfEld4eg2Uk_">
    <mxGraphModel dx="1113" dy="439" grid="1" gridSize="10" guides="1" tooltips="1" connect="1" arrows="1" fold="1" page="1" pageScale="1" pageWidth="827" pageHeight="1169" math="0" shadow="0">
      <root>
        <mxCell id="0" />
        <mxCell id="1" parent="0" />
        <mxCell id="SgM6ogKk8R4GUI8A8GDC-2" value="&lt;div&gt;Usuário&amp;nbsp;&lt;/div&gt;&lt;div&gt;(paciente)&lt;/div&gt;" style="shape=umlActor;verticalLabelPosition=bottom;verticalAlign=top;html=1;outlineConnect=0;" parent="1" vertex="1">
          <mxGeometry x="40" y="635" width="30" height="60" as="geometry" />
        </mxCell>
        <mxCell id="SgM6ogKk8R4GUI8A8GDC-3" value="Pesquisar profissionais disponíveis" style="ellipse;whiteSpace=wrap;html=1;" parent="1" vertex="1">
          <mxGeometry x="160" y="520" width="140" height="80" as="geometry" />
        </mxCell>
        <mxCell id="SgM6ogKk8R4GUI8A8GDC-4" value="Visualizar horários disponíveis" style="ellipse;whiteSpace=wrap;html=1;" parent="1" vertex="1">
          <mxGeometry x="560" y="610" width="120" height="80" as="geometry" />
        </mxCell>
        <mxCell id="SgM6ogKk8R4GUI8A8GDC-5" value="Agendar consulta" style="ellipse;whiteSpace=wrap;html=1;" parent="1" vertex="1">
          <mxGeometry x="320" y="615" width="120" height="80" as="geometry" />
        </mxCell>
        <mxCell id="SgM6ogKk8R4GUI8A8GDC-6" value="Gerenciar consulta" style="ellipse;whiteSpace=wrap;html=1;" parent="1" vertex="1">
          <mxGeometry x="457.5" y="720" width="120" height="80" as="geometry" />
        </mxCell>
        <mxCell id="KDireN_5SDR_AtX7Dkdv-1" value="Cadastrar paciente" style="ellipse;whiteSpace=wrap;html=1;" parent="1" vertex="1">
          <mxGeometry x="180" y="10" width="120" height="80" as="geometry" />
        </mxCell>
        <mxCell id="KDireN_5SDR_AtX7Dkdv-2" value="Cadastrar médico" style="ellipse;whiteSpace=wrap;html=1;" parent="1" vertex="1">
          <mxGeometry x="180" y="100" width="120" height="80" as="geometry" />
        </mxCell>
        <mxCell id="KDireN_5SDR_AtX7Dkdv-4" value="Administrador&amp;nbsp;&lt;div&gt;do sistema&lt;/div&gt;" style="shape=umlActor;verticalLabelPosition=bottom;verticalAlign=top;html=1;outlineConnect=0;" parent="1" vertex="1">
          <mxGeometry x="40" y="120" width="30" height="60" as="geometry" />
        </mxCell>
        <mxCell id="KDireN_5SDR_AtX7Dkdv-5" value="" style="endArrow=none;html=1;rounded=0;" parent="1" source="KDireN_5SDR_AtX7Dkdv-2" target="KDireN_5SDR_AtX7Dkdv-1" edge="1">
          <mxGeometry width="50" height="50" relative="1" as="geometry">
            <mxPoint x="350" y="-170" as="sourcePoint" />
            <mxPoint x="400" y="-220" as="targetPoint" />
            <Array as="points">
              <mxPoint x="80" y="150" />
            </Array>
          </mxGeometry>
        </mxCell>
        <mxCell id="KDireN_5SDR_AtX7Dkdv-10" value="Acessar área&lt;div&gt;do paciente&lt;/div&gt;" style="ellipse;whiteSpace=wrap;html=1;" parent="1" vertex="1">
          <mxGeometry x="330" y="520" width="140" height="80" as="geometry" />
        </mxCell>
        <mxCell id="KDireN_5SDR_AtX7Dkdv-12" value="Receber notificação" style="ellipse;whiteSpace=wrap;html=1;" parent="1" vertex="1">
          <mxGeometry x="40" y="790" width="140" height="80" as="geometry" />
        </mxCell>
        <mxCell id="KDireN_5SDR_AtX7Dkdv-21" value="Avaliar consulta" style="ellipse;whiteSpace=wrap;html=1;" parent="1" vertex="1">
          <mxGeometry x="180" y="750" width="120" height="80" as="geometry" />
        </mxCell>
        <mxCell id="KDireN_5SDR_AtX7Dkdv-24" value="Profissional&amp;nbsp;&lt;div&gt;de saúde&lt;div&gt;&lt;br&gt;&lt;/div&gt;&lt;/div&gt;" style="shape=umlActor;verticalLabelPosition=bottom;verticalAlign=top;html=1;outlineConnect=0;" parent="1" vertex="1">
          <mxGeometry x="50" y="960" width="30" height="60" as="geometry" />
        </mxCell>
        <mxCell id="KDireN_5SDR_AtX7Dkdv-41" value="Cancelar consulta" style="ellipse;whiteSpace=wrap;html=1;" parent="1" vertex="1">
          <mxGeometry x="680" y="720" width="140" height="80" as="geometry" />
        </mxCell>
        <mxCell id="KDireN_5SDR_AtX7Dkdv-42" value="" style="endArrow=classic;html=1;rounded=0;dashed=1;exitX=1;exitY=0.5;exitDx=0;exitDy=0;entryX=0;entryY=0.5;entryDx=0;entryDy=0;" parent="1" source="SgM6ogKk8R4GUI8A8GDC-6" target="KDireN_5SDR_AtX7Dkdv-41" edge="1">
          <mxGeometry width="50" height="50" relative="1" as="geometry">
            <mxPoint x="340" y="380" as="sourcePoint" />
            <mxPoint x="258" y="259" as="targetPoint" />
          </mxGeometry>
        </mxCell>
        <mxCell id="KDireN_5SDR_AtX7Dkdv-43" value="&amp;lt;&amp;lt;include&amp;gt;&amp;gt;" style="text;html=1;align=center;verticalAlign=middle;whiteSpace=wrap;rounded=0;rotation=0;" parent="1" vertex="1">
          <mxGeometry x="600" y="730" width="60" height="30" as="geometry" />
        </mxCell>
        <mxCell id="KDireN_5SDR_AtX7Dkdv-45" value="Efetuar login" style="ellipse;whiteSpace=wrap;html=1;" parent="1" vertex="1">
          <mxGeometry x="134" y="890" width="140" height="80" as="geometry" />
        </mxCell>
        <mxCell id="KDireN_5SDR_AtX7Dkdv-47" value="" style="endArrow=none;html=1;rounded=0;" parent="1" source="KDireN_5SDR_AtX7Dkdv-45" edge="1">
          <mxGeometry width="50" height="50" relative="1" as="geometry">
            <mxPoint x="810" y="90" as="sourcePoint" />
            <mxPoint x="90" y="990" as="targetPoint" />
          </mxGeometry>
        </mxCell>
        <mxCell id="KDireN_5SDR_AtX7Dkdv-48" value="Efetuar login" style="ellipse;whiteSpace=wrap;html=1;" parent="1" vertex="1">
          <mxGeometry x="40" y="500" width="110" height="80" as="geometry" />
        </mxCell>
        <mxCell id="KDireN_5SDR_AtX7Dkdv-49" value="" style="endArrow=none;html=1;rounded=0;" parent="1" source="KDireN_5SDR_AtX7Dkdv-10" edge="1">
          <mxGeometry width="50" height="50" relative="1" as="geometry">
            <mxPoint x="150" y="90" as="sourcePoint" />
            <mxPoint x="90" y="670" as="targetPoint" />
          </mxGeometry>
        </mxCell>
        <mxCell id="KDireN_5SDR_AtX7Dkdv-50" value="" style="endArrow=none;html=1;rounded=0;exitX=0.5;exitY=1;exitDx=0;exitDy=0;" parent="1" source="KDireN_5SDR_AtX7Dkdv-48" edge="1">
          <mxGeometry width="50" height="50" relative="1" as="geometry">
            <mxPoint x="150" y="90" as="sourcePoint" />
            <mxPoint x="90" y="670" as="targetPoint" />
          </mxGeometry>
        </mxCell>
        <mxCell id="KDireN_5SDR_AtX7Dkdv-51" value="Preencher histórico médico" style="ellipse;whiteSpace=wrap;html=1;" parent="1" vertex="1">
          <mxGeometry x="299" y="720" width="115" height="80" as="geometry" />
        </mxCell>
        <mxCell id="KDireN_5SDR_AtX7Dkdv-54" value="Visualizar profissionais por especialidade" style="ellipse;whiteSpace=wrap;html=1;" parent="1" vertex="1">
          <mxGeometry x="320" y="340" width="130" height="80" as="geometry" />
        </mxCell>
        <mxCell id="KDireN_5SDR_AtX7Dkdv-55" value="" style="endArrow=classic;html=1;rounded=0;dashed=1;entryX=0.5;entryY=0;entryDx=0;entryDy=0;exitX=0;exitY=1;exitDx=0;exitDy=0;" parent="1" source="KDireN_5SDR_AtX7Dkdv-54" target="SgM6ogKk8R4GUI8A8GDC-3" edge="1">
          <mxGeometry width="50" height="50" relative="1" as="geometry">
            <mxPoint x="400" y="450" as="sourcePoint" />
            <mxPoint x="290" y="190" as="targetPoint" />
          </mxGeometry>
        </mxCell>
        <mxCell id="KDireN_5SDR_AtX7Dkdv-56" value="&amp;lt;&amp;lt;extend&amp;gt;&amp;gt;" style="text;html=1;align=center;verticalAlign=middle;whiteSpace=wrap;rounded=0;rotation=-45;" parent="1" vertex="1">
          <mxGeometry x="250" y="440" width="60" height="30" as="geometry" />
        </mxCell>
        <mxCell id="KDireN_5SDR_AtX7Dkdv-72" value="Gerenciar consultas&amp;nbsp;&lt;div&gt;agendadas&lt;/div&gt;" style="ellipse;whiteSpace=wrap;html=1;" parent="1" vertex="1">
          <mxGeometry x="110" y="1070" width="140" height="80" as="geometry" />
        </mxCell>
        <mxCell id="KDireN_5SDR_AtX7Dkdv-73" value="Visualizar histórico médico do paciente" style="ellipse;whiteSpace=wrap;html=1;" parent="1" vertex="1">
          <mxGeometry x="317.5" y="1060" width="140" height="80" as="geometry" />
        </mxCell>
        <mxCell id="9qy2VQCDt5Afptxj3h8v-1" value="Atualizar dados" style="ellipse;whiteSpace=wrap;html=1;" parent="1" vertex="1">
          <mxGeometry x="180" y="190" width="120" height="80" as="geometry" />
        </mxCell>
        <mxCell id="9qy2VQCDt5Afptxj3h8v-2" value="" style="endArrow=none;html=1;rounded=0;" parent="1" target="9qy2VQCDt5Afptxj3h8v-1" edge="1">
          <mxGeometry width="50" height="50" relative="1" as="geometry">
            <mxPoint x="80" y="150" as="sourcePoint" />
            <mxPoint x="440" y="410" as="targetPoint" />
          </mxGeometry>
        </mxCell>
        <mxCell id="9qy2VQCDt5Afptxj3h8v-3" value="Gerenciar perfil" style="ellipse;whiteSpace=wrap;html=1;" parent="1" vertex="1">
          <mxGeometry x="420" y="190" width="120" height="80" as="geometry" />
        </mxCell>
        <mxCell id="9qy2VQCDt5Afptxj3h8v-4" value="" style="endArrow=classic;html=1;rounded=0;dashed=1;entryX=1;entryY=0.5;entryDx=0;entryDy=0;exitX=0;exitY=0.5;exitDx=0;exitDy=0;" parent="1" source="9qy2VQCDt5Afptxj3h8v-3" target="9qy2VQCDt5Afptxj3h8v-1" edge="1">
          <mxGeometry width="50" height="50" relative="1" as="geometry">
            <mxPoint x="420" y="230" as="sourcePoint" />
            <mxPoint x="334" y="298" as="targetPoint" />
          </mxGeometry>
        </mxCell>
        <mxCell id="9qy2VQCDt5Afptxj3h8v-5" value="&amp;lt;&amp;lt;extend&amp;gt;&amp;gt;" style="text;html=1;align=center;verticalAlign=middle;whiteSpace=wrap;rounded=0;rotation=0;" parent="1" vertex="1">
          <mxGeometry x="330" y="200" width="60" height="30" as="geometry" />
        </mxCell>
        <mxCell id="9qy2VQCDt5Afptxj3h8v-6" value="" style="endArrow=none;html=1;rounded=0;exitX=0;exitY=1;exitDx=0;exitDy=0;" parent="1" source="SgM6ogKk8R4GUI8A8GDC-3" edge="1">
          <mxGeometry width="50" height="50" relative="1" as="geometry">
            <mxPoint x="165" y="530" as="sourcePoint" />
            <mxPoint x="90" y="670" as="targetPoint" />
          </mxGeometry>
        </mxCell>
        <mxCell id="9qy2VQCDt5Afptxj3h8v-8" value="" style="endArrow=none;html=1;rounded=0;exitX=0;exitY=0.5;exitDx=0;exitDy=0;" parent="1" source="SgM6ogKk8R4GUI8A8GDC-5" edge="1">
          <mxGeometry width="50" height="50" relative="1" as="geometry">
            <mxPoint x="312" y="660" as="sourcePoint" />
            <mxPoint x="90" y="670" as="targetPoint" />
          </mxGeometry>
        </mxCell>
        <mxCell id="9qy2VQCDt5Afptxj3h8v-9" value="" style="endArrow=none;html=1;rounded=0;exitX=0;exitY=0;exitDx=0;exitDy=0;" parent="1" source="SgM6ogKk8R4GUI8A8GDC-6" edge="1">
          <mxGeometry width="50" height="50" relative="1" as="geometry">
            <mxPoint x="364" y="675" as="sourcePoint" />
            <mxPoint x="90" y="670" as="targetPoint" />
          </mxGeometry>
        </mxCell>
        <mxCell id="9qy2VQCDt5Afptxj3h8v-10" value="" style="endArrow=none;html=1;rounded=0;exitX=0;exitY=0;exitDx=0;exitDy=0;" parent="1" source="KDireN_5SDR_AtX7Dkdv-51" edge="1">
          <mxGeometry width="50" height="50" relative="1" as="geometry">
            <mxPoint x="485" y="742" as="sourcePoint" />
            <mxPoint x="90" y="670" as="targetPoint" />
          </mxGeometry>
        </mxCell>
        <mxCell id="9qy2VQCDt5Afptxj3h8v-11" value="" style="endArrow=none;html=1;rounded=0;exitX=0.433;exitY=-0.012;exitDx=0;exitDy=0;exitPerimeter=0;" parent="1" source="KDireN_5SDR_AtX7Dkdv-21" edge="1">
          <mxGeometry width="50" height="50" relative="1" as="geometry">
            <mxPoint x="312" y="752" as="sourcePoint" />
            <mxPoint x="90" y="670" as="targetPoint" />
          </mxGeometry>
        </mxCell>
        <mxCell id="9qy2VQCDt5Afptxj3h8v-12" value="" style="endArrow=none;html=1;rounded=0;" parent="1" source="KDireN_5SDR_AtX7Dkdv-12" edge="1">
          <mxGeometry width="50" height="50" relative="1" as="geometry">
            <mxPoint x="322" y="762" as="sourcePoint" />
            <mxPoint x="90" y="670" as="targetPoint" />
          </mxGeometry>
        </mxCell>
        <mxCell id="9qy2VQCDt5Afptxj3h8v-13" value="Ver agenda" style="ellipse;whiteSpace=wrap;html=1;" parent="1" vertex="1">
          <mxGeometry x="344" y="890" width="140" height="80" as="geometry" />
        </mxCell>
        <mxCell id="9qy2VQCDt5Afptxj3h8v-14" value="" style="endArrow=none;html=1;rounded=0;exitX=0.2;exitY=0.075;exitDx=0;exitDy=0;exitPerimeter=0;" parent="1" source="KDireN_5SDR_AtX7Dkdv-72" edge="1">
          <mxGeometry width="50" height="50" relative="1" as="geometry">
            <mxPoint x="210" y="1000" as="sourcePoint" />
            <mxPoint x="90" y="990" as="targetPoint" />
          </mxGeometry>
        </mxCell>
        <mxCell id="9qy2VQCDt5Afptxj3h8v-15" value="" style="endArrow=none;html=1;rounded=0;exitX=0.014;exitY=0.425;exitDx=0;exitDy=0;exitPerimeter=0;" parent="1" source="KDireN_5SDR_AtX7Dkdv-73" edge="1">
          <mxGeometry width="50" height="50" relative="1" as="geometry">
            <mxPoint x="220" y="1010" as="sourcePoint" />
            <mxPoint x="90" y="990" as="targetPoint" />
          </mxGeometry>
        </mxCell>
        <mxCell id="9qy2VQCDt5Afptxj3h8v-16" value="" style="endArrow=none;html=1;rounded=0;exitX=0;exitY=1;exitDx=0;exitDy=0;" parent="1" source="9qy2VQCDt5Afptxj3h8v-13" edge="1">
          <mxGeometry width="50" height="50" relative="1" as="geometry">
            <mxPoint x="230" y="1020" as="sourcePoint" />
            <mxPoint x="90" y="990" as="targetPoint" />
          </mxGeometry>
        </mxCell>
        <mxCell id="9qy2VQCDt5Afptxj3h8v-17" value="Receber notificação" style="ellipse;whiteSpace=wrap;html=1;" parent="1" vertex="1">
          <mxGeometry x="400" y="980" width="140" height="80" as="geometry" />
        </mxCell>
        <mxCell id="9qy2VQCDt5Afptxj3h8v-18" value="" style="endArrow=none;html=1;rounded=0;exitX=0;exitY=0.5;exitDx=0;exitDy=0;" parent="1" source="9qy2VQCDt5Afptxj3h8v-17" edge="1">
          <mxGeometry width="50" height="50" relative="1" as="geometry">
            <mxPoint x="298" y="1114" as="sourcePoint" />
            <mxPoint x="90" y="990" as="targetPoint" />
          </mxGeometry>
        </mxCell>
        <mxCell id="9qy2VQCDt5Afptxj3h8v-19" value="Ver disponibilidade" style="ellipse;whiteSpace=wrap;html=1;" parent="1" vertex="1">
          <mxGeometry x="660" y="1020" width="140" height="80" as="geometry" />
        </mxCell>
        <mxCell id="9qy2VQCDt5Afptxj3h8v-20" value="" style="endArrow=classic;html=1;rounded=0;dashed=1;" parent="1" source="9qy2VQCDt5Afptxj3h8v-19" target="9qy2VQCDt5Afptxj3h8v-17" edge="1">
          <mxGeometry width="50" height="50" relative="1" as="geometry">
            <mxPoint x="540" y="989.5" as="sourcePoint" />
            <mxPoint x="642" y="989.5" as="targetPoint" />
          </mxGeometry>
        </mxCell>
        <mxCell id="9qy2VQCDt5Afptxj3h8v-22" value="&amp;lt;&amp;lt;extend&amp;gt;&amp;gt;" style="text;html=1;align=center;verticalAlign=middle;whiteSpace=wrap;rounded=0;rotation=10;" parent="1" vertex="1">
          <mxGeometry x="570" y="1010" width="60" height="30" as="geometry" />
        </mxCell>
        <mxCell id="9qy2VQCDt5Afptxj3h8v-23" value="" style="endArrow=classic;html=1;rounded=0;dashed=1;entryX=0;entryY=0.5;entryDx=0;entryDy=0;exitX=1;exitY=0.5;exitDx=0;exitDy=0;" parent="1" source="SgM6ogKk8R4GUI8A8GDC-5" target="SgM6ogKk8R4GUI8A8GDC-4" edge="1">
          <mxGeometry width="50" height="50" relative="1" as="geometry">
            <mxPoint x="440" y="655" as="sourcePoint" />
            <mxPoint x="522" y="654.5" as="targetPoint" />
          </mxGeometry>
        </mxCell>
        <mxCell id="9qy2VQCDt5Afptxj3h8v-24" value="&amp;lt;&amp;lt;include&amp;gt;&amp;gt;" style="text;html=1;align=center;verticalAlign=middle;whiteSpace=wrap;rounded=0;rotation=0;" parent="1" vertex="1">
          <mxGeometry x="470" y="630" width="60" height="30" as="geometry" />
        </mxCell>
      </root>
    </mxGraphModel>
  </diagram>
</mxfile>
